<?xml version="1.0" encoding="UTF-8"?>
<!DOCTYPE svg PUBLIC "-//W3C//DTD SVG 1.1//EN" "http://www.w3.org/Graphics/SVG/1.1/DTD/svg11.dtd">
<svg xmlns="http://www.w3.org/2000/svg" version="1.1" width="28px" height="20px" style="shape-rendering:geometricPrecision; text-rendering:geometricPrecision; image-rendering:optimizeQuality; fill-rule:evenodd; clip-rule:evenodd" xmlns:xlink="http://www.w3.org/1999/xlink">
<g><path style="opacity:0.99" fill="#d7252a" d="M -0.5,-0.5 C 8.83333,-0.5 18.1667,-0.5 27.5,-0.5C 27.5,1.83333 27.5,4.16667 27.5,6.5C 18.1667,6.5 8.83333,6.5 -0.5,6.5C -0.5,4.16667 -0.5,1.83333 -0.5,-0.5 Z"/></g>
<g><path style="opacity:1" fill="#fad144" d="M -0.5,6.5 C 8.83333,6.5 18.1667,6.5 27.5,6.5C 27.5,8.83333 27.5,11.1667 27.5,13.5C 18.1667,13.5 8.83333,13.5 -0.5,13.5C -0.5,11.1667 -0.5,8.83333 -0.5,6.5 Z"/></g>
<g><path style="opacity:1" fill="#d50529" d="M -0.5,13.5 C 8.83333,13.5 18.1667,13.5 27.5,13.5C 27.5,15.5 27.5,17.5 27.5,19.5C 18.1667,19.5 8.83333,19.5 -0.5,19.5C -0.5,17.5 -0.5,15.5 -0.5,13.5 Z"/></g>
</svg>
